<svg width="1031" height="623" viewBox="0 0 1031 623" fill="none" xmlns="http://www.w3.org/2000/svg">
<path fill-rule="evenodd" clip-rule="evenodd" d="M362.499 232.7C387.453 145.601 272.322 30.8667 272.322 30.8667C214.427 135.503 304.23 367.069 304.23 367.069L311.757 367.299L362.499 232.7Z" fill="#FF7800"/>
<path fill-rule="evenodd" clip-rule="evenodd" d="M617.872 575.639H640.024V580.149H622.296V594.598H640.024V599.108H622.296V621.73H617.872V575.639Z" fill="#FF7800"/>
<path fill-rule="evenodd" clip-rule="evenodd" d="M654.031 575.639H658.456V603.46C658.456 606.764 658.513 608.818 658.628 609.637C658.858 611.461 659.361 612.983 660.166 614.204C660.97 615.425 662.206 616.445 663.858 617.278C665.524 618.111 667.191 618.513 668.886 618.513C670.351 618.513 671.745 618.197 673.095 617.551C674.431 616.89 675.552 615.999 676.457 614.85C677.362 613.701 678.023 612.322 678.439 610.685C678.741 609.507 678.899 607.109 678.899 603.475V575.653H683.324V603.475C683.324 607.597 682.936 610.929 682.16 613.457C681.384 615.999 679.847 618.211 677.52 620.079C675.207 621.975 672.406 622.908 669.116 622.908C665.553 622.908 662.493 622.018 659.95 620.237C657.407 618.456 655.698 616.114 654.836 613.184C654.29 611.403 654.017 608.157 654.017 603.475V575.639H654.031Z" fill="#FF7800"/>
<path fill-rule="evenodd" clip-rule="evenodd" d="M700.391 621.73V575.639H701.353L730.79 610.972V575.639H735.143V621.73H734.151L704.959 586.828V621.73H700.391Z" fill="#FF7800"/>
<path fill-rule="evenodd" clip-rule="evenodd" d="M752.066 621.73V575.639H761.232C767.854 575.639 772.653 576.184 775.641 577.305C779.936 578.87 783.284 581.585 785.697 585.463C788.111 589.312 789.317 593.923 789.317 599.281C789.317 603.891 788.355 607.956 786.444 611.475C784.533 614.98 782.048 617.565 778.988 619.246C775.928 620.912 771.647 621.745 766.145 621.745H752.066V621.73ZM756.304 617.378H761.418C767.538 617.378 771.776 616.976 774.132 616.186C777.451 615.066 780.066 613.026 781.976 610.096C783.873 607.166 784.835 603.575 784.835 599.338C784.835 594.9 783.801 591.094 781.746 587.948C779.678 584.802 776.804 582.634 773.112 581.456C770.354 580.58 765.786 580.149 759.436 580.149H756.304V617.378V617.378Z" fill="#FF7800"/>
<path fill-rule="evenodd" clip-rule="evenodd" d="M822.101 575.639L842.731 621.73H837.961L831.008 606.563H811.958L805.063 621.73H800.135L821.023 575.639H822.101ZM821.541 585.434L813.97 602.125H829.083L821.541 585.434Z" fill="#FF7800"/>
<path fill-rule="evenodd" clip-rule="evenodd" d="M896.92 584.199L893.429 586.985C891.504 584.386 889.191 582.403 886.504 581.053C883.804 579.718 880.844 579.028 877.612 579.028C874.092 579.028 870.831 579.904 867.814 581.671C864.811 583.438 862.47 585.808 860.818 588.781C859.18 591.754 858.332 595.101 858.332 598.835C858.332 604.451 860.186 609.148 863.878 612.897C867.57 616.66 872.239 618.542 877.87 618.542C884.077 618.542 889.248 616.014 893.415 610.958L896.906 613.715C894.693 616.646 891.949 618.901 888.645 620.495C885.355 622.089 881.663 622.894 877.597 622.894C869.854 622.894 863.763 620.208 859.295 614.836C855.545 610.311 853.678 604.839 853.678 598.419C853.678 591.682 855.948 585.994 860.473 581.398C865.013 576.787 870.702 574.489 877.54 574.489C881.663 574.489 885.398 575.337 888.717 577.046C892.064 578.741 894.808 581.125 896.92 584.199Z" fill="#FF7800"/>
<path d="M915.754 575.639H911.329V621.73H915.754V575.639Z" fill="#FF7800"/>
<path fill-rule="evenodd" clip-rule="evenodd" d="M953.091 574.475C959.786 574.475 965.389 576.802 969.9 581.47C974.411 586.124 976.666 591.869 976.666 598.677C976.666 605.428 974.411 611.159 969.914 615.856C965.418 620.553 959.93 622.908 953.436 622.908C946.885 622.908 941.34 620.567 936.829 615.899C932.318 611.216 930.062 605.543 930.062 598.907C930.062 594.469 931.097 590.375 933.151 586.583C935.206 582.806 938.007 579.847 941.555 577.707C945.118 575.552 948.954 574.475 953.091 574.475ZM953.278 578.957C950.017 578.957 946.914 579.847 943.983 581.628C941.053 583.409 938.768 585.793 937.116 588.81C935.464 591.826 934.645 595.173 934.645 598.878C934.645 604.365 936.47 608.99 940.104 612.753C943.739 616.531 948.149 618.412 953.278 618.412C956.712 618.412 959.887 617.551 962.817 615.813C965.734 614.075 968.018 611.705 969.656 608.688C971.293 605.687 972.098 602.326 972.098 598.649C972.098 594.986 971.279 591.682 969.656 588.724C968.018 585.765 965.719 583.395 962.746 581.628C959.772 579.847 956.626 578.957 953.278 578.957ZM955.491 562.353H961.955L953.091 572.005H948.94L955.491 562.353Z" fill="#FF7800"/>
<path fill-rule="evenodd" clip-rule="evenodd" d="M991.736 621.73V575.639H992.699L1022.12 610.972V575.639H1026.49V621.73H1025.5L996.305 586.828V621.73H991.736Z" fill="#FF7800"/>
<path fill-rule="evenodd" clip-rule="evenodd" d="M298.095 418.059L353.218 555.875H340.461L321.871 510.53H270.943L252.511 555.875H239.338L295.193 418.059H298.095V418.059ZM296.601 447.345L276.331 497.229H316.757L296.601 447.345Z" fill="#FF7800"/>
<path d="M375.141 414.597H363.892V555.874H375.141V414.597Z" fill="#FF7800"/>
<path fill-rule="evenodd" clip-rule="evenodd" d="M479.281 475.11L470.36 481.573C462.645 469.652 452.129 463.676 438.812 463.676C428.167 463.676 419.317 467.669 412.278 475.655C405.238 483.641 401.718 493.337 401.718 504.755C401.718 512.181 403.342 519.162 406.574 525.712C409.807 532.261 414.246 537.346 419.892 540.965C425.538 544.585 431.873 546.395 438.869 546.395C451.713 546.395 462.214 540.42 470.346 528.498L479.267 535.335C475.086 542.675 469.469 548.363 462.43 552.413C455.39 556.463 447.36 558.489 438.352 558.489C424.532 558.489 413.068 553.361 403.96 543.12C394.851 532.879 390.297 520.411 390.297 505.747C390.297 495.879 392.438 486.715 396.69 478.255C400.943 469.795 406.79 463.188 414.246 458.434C421.702 453.694 430.02 451.31 439.243 451.31C445.032 451.31 450.606 452.344 455.994 454.398C461.381 456.466 465.95 459.152 469.699 462.456C473.477 465.773 476.652 469.996 479.281 475.11Z" fill="#FF7800"/>
<path fill-rule="evenodd" clip-rule="evenodd" d="M583.896 453.953V555.875H572.805V538.366C568.093 545.045 562.806 550.072 556.93 553.447C551.069 556.823 544.662 558.503 537.694 558.503C525.325 558.503 514.751 553.275 505.988 542.804C497.225 532.348 492.857 519.622 492.857 504.641C492.857 489.962 497.282 477.408 506.117 466.966C514.967 456.538 525.598 451.324 538.024 451.324C545.207 451.324 551.701 453.105 557.519 456.667C563.338 460.229 568.438 465.573 572.834 472.697V453.967H583.896V453.953ZM538.944 463.964C532.68 463.964 526.905 465.759 521.604 469.35C516.303 472.941 512.093 477.983 508.962 484.46C505.844 490.953 504.264 497.818 504.264 505.043C504.264 512.225 505.844 519.09 508.99 525.64C512.151 532.19 516.403 537.289 521.719 540.937C527.034 544.6 532.752 546.409 538.858 546.409C545.021 546.409 550.853 544.6 556.356 540.98C561.872 537.361 566.11 532.463 569.07 526.286C572.029 520.11 573.523 513.144 573.523 505.416C573.523 493.624 570.19 483.771 563.539 475.842C556.873 467.928 548.684 463.964 538.944 463.964Z" fill="#FF7800"/>
<path fill-rule="evenodd" clip-rule="evenodd" d="M600.848 453.938H612.341V468.833C615.774 462.958 619.38 458.577 623.187 455.662C626.994 452.76 630.959 451.31 635.082 451.31C638.185 451.31 641.518 452.473 645.052 454.771L639.177 465.831C636.806 464.639 634.838 464.05 633.229 464.05C629.465 464.05 625.859 465.845 622.383 469.436C618.892 473.027 616.248 478.6 614.424 486.169C613.03 491.972 612.341 503.721 612.341 521.403V555.875H600.848V453.938Z" fill="#FF7800"/>
<path fill-rule="evenodd" clip-rule="evenodd" d="M737.613 453.953V555.875H726.523V538.366C721.811 545.045 716.51 550.072 710.648 553.447C704.787 556.823 698.365 558.503 691.397 558.503C679.014 558.503 668.455 553.275 659.691 542.804C650.928 532.348 646.546 519.622 646.546 504.641C646.546 489.962 650.971 477.408 659.806 466.966C668.642 456.538 679.272 451.324 691.699 451.324C698.882 451.324 705.376 453.105 711.194 456.667C717.012 460.229 722.112 465.573 726.508 472.697V453.967H737.613V453.953ZM692.647 463.964C686.384 463.964 680.594 465.759 675.307 469.35C670.006 472.941 665.797 477.983 662.665 484.46C659.533 490.953 657.967 497.818 657.967 505.043C657.967 512.225 659.548 519.09 662.708 525.64C665.855 532.19 670.107 537.289 675.422 540.937C680.738 544.6 686.456 546.409 692.561 546.409C698.724 546.409 704.557 544.6 710.074 540.98C715.576 537.361 719.828 532.463 722.788 526.286C725.761 520.11 727.241 513.144 727.241 505.416C727.241 493.624 723.908 483.771 717.242 475.842C710.591 467.928 702.388 463.964 692.647 463.964Z" fill="#FF7800"/>
<path fill-rule="evenodd" clip-rule="evenodd" d="M750.543 453.938H762.524L791.874 528.254L820.865 453.938H832.919L792.894 555.874H790.811L750.543 453.938Z" fill="#FF7800"/>
<path fill-rule="evenodd" clip-rule="evenodd" d="M933.036 453.938V555.874H921.946V538.351C917.234 545.03 911.947 550.057 906.071 553.433C900.21 556.808 893.788 558.488 886.835 558.488C874.451 558.488 863.892 553.26 855.129 542.789C846.365 532.333 841.998 519.607 841.998 504.612C841.998 489.932 846.423 477.379 855.258 466.951C864.108 456.523 874.739 451.295 887.165 451.295C894.348 451.295 900.842 453.076 906.66 456.638C912.479 460.2 917.578 465.543 921.975 472.653V453.924H933.036V453.938ZM888.07 463.963C881.807 463.963 876.032 465.759 870.73 469.35C865.429 472.941 861.22 477.982 858.088 484.46C854.956 490.952 853.39 497.818 853.39 505.057C853.39 512.239 854.971 519.09 858.117 525.64C861.277 532.189 865.53 537.288 870.831 540.936C876.161 544.599 881.864 546.409 887.97 546.409C894.133 546.409 899.966 544.599 905.482 540.98C910.984 537.36 915.222 532.462 918.196 526.286C921.17 520.11 922.65 513.158 922.65 505.416C922.65 493.624 919.317 483.756 912.665 475.842C906.014 467.928 897.811 463.963 888.07 463.963ZM894.952 406.166H912.22L888.516 435.021H877.425L894.952 406.166Z" fill="#FF7800"/>
<path fill-rule="evenodd" clip-rule="evenodd" d="M954.241 453.938H965.489V472.208C969.986 465.213 974.971 459.985 980.43 456.509C985.904 453.048 991.837 451.31 998.273 451.31C1004.81 451.31 1010.61 453.249 1015.67 457.112C1020.73 460.99 1024.46 466.204 1026.89 472.754C1029.29 479.318 1030.5 489.516 1030.5 503.391V555.86H1019.25V507.24C1019.25 495.506 1018.83 487.663 1018 483.728C1016.69 476.977 1014.19 471.907 1010.5 468.502C1006.81 465.098 1001.98 463.389 996.032 463.389C989.222 463.389 983.131 466.018 977.744 471.26C972.356 476.503 968.808 483.009 967.084 490.751C966.021 495.807 965.489 505.057 965.489 518.487V555.86H954.241V453.938V453.938Z" fill="#FF7800"/>
<path fill-rule="evenodd" clip-rule="evenodd" d="M179.028 483.613H214.039V490.579H185.134V512.885H213.78V519.866H185.134V547.846H213.78V554.812H179.028V483.613Z" fill="#FF7800"/>
<path d="M228.577 481.817H222.759V554.812H228.577V481.817Z" fill="#FF7800"/>
<path fill-rule="evenodd" clip-rule="evenodd" d="M331.813 334.593C364.869 336.116 397.696 334.909 397.696 334.909C485.516 338.615 522.667 292.15 522.667 292.15C553.985 258.841 532.192 243.429 532.192 243.429C502.353 207.622 409.806 230.316 409.806 230.316C413.412 228.851 448.222 219.213 448.222 219.213C453.609 230.919 421.199 167.921 431.198 142.168C421.659 204.189 484.439 215.737 484.439 215.737L492.771 217.733C495.4 218.035 497.986 218.423 500.486 218.897L504.551 220.003C504.551 220.003 516.518 221.123 534.993 224.987C553.468 228.836 577.474 234.625 575.621 255.796C574.816 265.075 581.669 272.041 584.872 274.526L586.51 275.646C597.615 279.237 612.197 284.494 616.622 288.588C616.622 288.588 619.581 292.968 614.251 292.365C614.251 292.365 605.962 292.681 597.673 291.475C589.369 290.282 569.802 288.602 560.45 294.821L559.071 295.496L551.916 299.633C521.46 316.438 502.54 333.961 502.54 333.961C390.929 410.69 265.786 402.79 260.082 400.808L235.89 401.526C199.658 419.337 79.04 531.471 79.04 531.471C64.9611 545.088 47.8798 526.229 47.8798 526.229C39.8347 517.855 9.66578 476.977 9.66578 476.977C-9.42685 458.118 5.65761 448.695 5.65761 448.695C19.7364 430.885 205.692 371.148 205.692 371.148L240.875 360.16C263.717 351.872 252.813 342.005 252.813 342.005C187.562 264.026 54.2871 91.9683 65.7225 0C65.7225 0 349.928 151.906 332.617 331.505L331.813 334.593Z" fill="#FF7800"/>
</svg>
