<svg width="443" height="480" fill="none" xmlns="http://www.w3.org/2000/svg"><path d="M166.403 209.772c-24.552-19.62-39.995-47.672-43.472-78.97-3.491-31.297 5.402-62.063 25.026-86.596C167.581 19.659 195.638 4.219 226.942.743c31.318-3.49 62.076 5.4 86.628 25.02l-16.564 20.712C277.985 31.28 254.137 24.4 229.887 27.1c-24.264 2.7-46 14.665-61.214 33.668-15.199 19.002-22.081 42.846-19.38 67.105 2.701 24.26 14.668 45.992 33.674 61.202l-16.564 20.698Z" fill="url(#a)"/><path d="M188.168 182.554c-17.283-13.818-28.158-33.567-30.614-55.615-2.457-22.048 3.807-43.708 17.627-60.987 13.82-17.279 33.574-28.152 55.626-30.608 22.052-2.456 43.701 3.806 60.998 17.624L275.241 73.68c-11.751-9.394-26.491-13.645-41.504-11.98-15.012 1.667-28.445 9.064-37.84 20.813-9.396 11.75-13.648 26.486-11.982 41.496 1.667 15.01 9.065 28.439 20.817 37.833l-16.564 20.712Z" fill="url(#b)"/><path d="M209.933 155.335c-10.042-8.029-16.349-19.477-17.771-32.246-1.423-12.769 2.212-25.337 10.243-35.362 8.016-10.04 19.48-16.346 32.252-17.767 12.757-1.422 25.342 2.212 35.369 10.24l-16.564 20.712c-4.511-3.605-10.142-5.228-15.874-4.596-5.733.647-10.876 3.476-14.467 7.972-7.442 9.293-5.919 22.909 3.376 30.349l-16.564 20.698Z" fill="url(#c)"/><path d="M202.247 294.946c-26.621 0-52.25-8.934-73.296-25.753l16.564-20.712c19.021 15.196 42.854 22.091 67.119 19.376 24.264-2.7 46-14.665 61.199-33.668 31.434-39.312 25.026-96.88-14.294-128.307l16.564-20.712c24.552 19.62 39.996 47.672 43.472 78.97 3.477 31.297-5.401 62.063-25.026 86.61-19.624 24.547-47.681 39.988-78.985 43.464-4.453.488-8.907.732-13.317.732Z" fill="url(#d)"/><path d="M202.434 260.086c-18.173 0-36.462-5.932-51.733-18.126l16.564-20.712c24.308 19.434 59.907 15.469 79.345-8.833 19.437-24.303 15.472-59.895-8.85-79.329l16.564-20.712c35.729 28.569 41.561 80.866 13.002 116.601-16.364 20.468-40.513 31.111-64.892 31.111Z" fill="url(#e)"/><path d="M202.477 225.256c-10.545 0-21.147-3.433-29.997-10.514l16.564-20.712c9.295 7.426 22.914 5.918 30.356-3.39 7.427-9.293 5.919-22.909-3.39-30.349l16.564-20.712c20.716 16.561 24.106 46.896 7.542 67.622-9.51 11.879-23.517 18.055-37.639 18.055Z" fill="url(#f)"/><path d="M93.596 440.906c.416 8.848 8.677 16.374 17.526 16.374 8.261-.172 14.137-5.041 16.205-10.672h6.12c-3.146 9.006-11.823 15.872-22.238 15.872-12.657 0-23.561-10.256-23.561-23.642 0-12.812 10.33-23.556 23.489-23.8 9.927.086 16.952 5.946 20.17 11.577 3.06 4.883 3.721 9.924 3.476 14.305H93.596v-.014Zm35.312-5.214c-1.825-10.658-10.502-15.455-17.699-15.455-7.112 0-15.961 4.797-17.613 15.455h35.312ZM140.889 416.187h5.79v5.789h.158c1.738-2.729 6.206-6.938 13.892-6.938 5.545 0 10.171 1.408 14.308 5.544 3.391 3.304 5.618 8.518 5.618 15.958v24.877h-5.79V436.54c0-5.875-1.825-9.997-4.296-12.395-3.146-3.06-7.283-3.879-9.84-3.879-2.557 0-6.695.819-9.841 3.879-2.485 2.398-4.296 6.535-4.209 12.395v24.877h-5.79v-45.23ZM192.664 440.906c.417 8.848 8.678 16.375 17.527 16.375 8.261-.173 14.136-5.042 16.205-10.672h6.12c-3.146 9.006-11.823 15.871-22.239 15.871-12.656 0-23.56-10.255-23.56-23.642 0-12.812 10.329-23.556 23.489-23.8 9.927.086 16.952 5.947 20.17 11.577 3.06 4.884 3.721 9.925 3.476 14.306h-41.188v-.015Zm35.298-5.213c-1.824-10.658-10.502-15.455-17.699-15.455-7.111 0-15.961 4.797-17.613 15.455h35.312ZM240.375 416.187h5.789v6.536h.158c2.73-6.363 7.859-7.355 12.729-7.685v6.119c-4.051.33-7.528 1.824-9.755 4.467-1.982 2.485-3.146 5.702-3.146 9.336v26.457h-5.79v-45.23h.015ZM306.962 454.293c0 4.884 0 10.988-4.138 16.532-5.703 7.943-16.118 8.345-17.943 8.345-6.45 0-19.021-2.484-23.144-16.618h6.12c1.494 3.72 5.948 11.405 16.952 11.405 7.6 0 16.363-4.381 16.363-16.863v-3.964h-.158c-3.39 6.449-10.832 9.336-17.44 9.336-11.91 0-23.647-9.264-23.647-23.47 0-14.377 11.737-23.972 23.647-23.972 4.137 0 12.24 1.235 17.44 9.264h.158v-8.101h5.79v38.106Zm-23.403 2.973c11.982 0 17.944-10.743 17.944-18.442 0-9.925-7.772-18.601-17.944-18.601-10.257 0-17.857 8.676-17.857 18.601 0 9.853 7.614 18.442 17.857 18.442ZM330.465 459.923l-17.613-43.721h6.12l14.381 36.037 15.371-36.037h6.12l-26.204 61.087h-6.033l7.858-17.366ZM73.052 331.257H61.056V386.8h11.996v-55.543ZM238.881 388.48c-16.45 0-29.825-13.372-29.825-29.818s13.375-29.818 29.825-29.818c6.378 0 12.484 2.025 17.656 5.846l2.111 1.565v-5.372h10.243v55.859h-10.243v-5.659l-2.111 1.566c-5.187 3.806-11.292 5.831-17.656 5.831Zm0-48.246c-10.172 0-18.432 8.273-18.432 18.428 0 10.155 8.275 18.428 18.432 18.428 10.156 0 18.431-8.273 18.431-18.428 0-10.155-8.275-18.428-18.431-18.428ZM316.242 388.853c-4.683 0-9.266-.804-13.619-2.413-15.573-5.716-26.031-20.669-26.031-37.215 0-15.11 8.821-29.129 22.469-35.722 5.387-2.599 11.162-3.906 17.167-3.906 14.438 0 27.87 8.043 34.795 20.654h-15.846c-5.086-5.084-11.78-7.871-18.949-7.871-1.824 0-3.635.187-5.402.546-12.426 2.542-21.448 13.602-21.448 26.299 0 13.817 10.358 25.308 24.106 26.701a29.32 29.32 0 0 0 2.744.144c7.154 0 13.863-2.787 18.949-7.871h15.846c-6.91 12.611-20.343 20.654-34.781 20.654ZM386.234 388.48c-16.449 0-29.824-13.372-29.824-29.818s13.375-29.818 29.824-29.818c16.45 0 29.824 13.372 29.824 29.818s-13.374 29.818-29.824 29.818Zm0-48.246c-10.171 0-18.431 8.273-18.431 18.428 0 10.155 8.274 18.428 18.431 18.428 10.157 0 18.432-8.273 18.432-18.428 0-10.155-8.26-18.428-18.432-18.428ZM442.507 385.981a28.93 28.93 0 0 1-6.982-3.433c-8.275-5.544-13.217-14.78-13.217-24.69v-46.337h11.148v46.337c0 6.549 3.448 12.567 9.051 15.928v12.195ZM149.293 328.398c-.517.129-1.034.273-1.551.445.517-.158 1.02-.316 1.551-.445ZM148.115 386.742v-55.859h10.243v6.621l2.27-2.269a21.074 21.074 0 0 1 8.318-5.128c.46-.144.963-.287 1.451-.416l.158-.044a29.21 29.21 0 0 1 5.488-.79v9.839c-8.892.618-16.377 7.469-17.67 16.418l-.015.1v31.528h-10.243ZM181.315 386.742v-55.859h10.243v6.621l2.27-2.269a20.976 20.976 0 0 1 8.318-5.128c.46-.144.949-.287 1.451-.416l.158-.044a29.21 29.21 0 0 1 5.488-.79v9.839c-8.892.618-16.377 7.469-17.67 16.418l-.015.086v31.527h-10.243v.015ZM110.576 388.494c-16.449 0-29.824-13.372-29.824-29.818s13.375-29.819 29.824-29.819c16.45 0 29.825 13.373 29.825 29.819 0 1.723-.158 3.476-.46 5.214h-47.15l.761 1.838c2.874 6.923 9.554 11.39 17.024 11.39a18.32 18.32 0 0 0 12.355-4.783h14.094c-5.1 9.868-15.272 16.159-26.449 16.159Zm0-48.261c-8.03 0-15.084 5.142-17.555 12.812l-.56 1.738h36.217l-.56-1.738c-2.457-7.655-9.511-12.812-17.542-12.812ZM27.18 388.609c-3.72 0-7.11-.446-10.113-1.336-3.017-.891-5.775-2.04-8.174-3.419-2.4-1.364-4.511-2.887-6.235-4.51A51.67 51.67 0 0 1 0 376.673l7.14-8.59.144-.129c.747.804 1.58 1.637 2.485 2.499a33.923 33.923 0 0 0 4.468 3.505 25.857 25.857 0 0 0 5.617 2.743c2.098.747 4.497 1.121 7.097 1.121 4.884 0 8.605-1.178 11.047-3.491 2.471-2.341 3.721-5.199 3.721-8.488 0-1.81-.359-3.476-1.063-4.927-.718-1.479-1.925-2.786-3.591-3.892-1.552-1.02-3.592-1.954-6.048-2.758-2.414-.79-5.402-1.551-8.893-2.241-3.405-.661-6.364-1.709-8.82-3.102-2.429-1.379-4.483-3.031-6.063-4.913a19.548 19.548 0 0 1-3.578-6.248 21.423 21.423 0 0 1-1.192-7.038c0-2.757.517-5.415 1.523-7.899 1.005-2.471 2.557-4.683 4.64-6.579 2.098-1.924 4.784-3.49 7.959-4.653 3.204-1.178 7.04-1.767 11.421-1.767 3.936 0 7.355.445 10.143 1.321 2.8.891 5.171 1.925 7.053 3.103 1.853 1.163 3.304 2.312 4.296 3.418l.488.546-6.924 8.331a18.471 18.471 0 0 1-.82-.776c-.919-.876-2.068-1.738-3.404-2.542-1.336-.819-2.96-1.552-4.827-2.198-1.91-.661-4.08-1.005-6.465-1.005-2.155 0-4.05.301-5.674.89-1.61.589-2.988 1.379-4.066 2.342-1.106.976-1.94 2.082-2.485 3.289-.532 1.206-.82 2.384-.82 3.49 0 1.58.303 3.016.877 4.266.59 1.264 1.58 2.456 2.945 3.505 1.293 1.005 3.089 1.91 5.301 2.7 2.127.747 4.842 1.45 8.06 2.082a41.881 41.881 0 0 1 8.404 2.686c2.629 1.164 4.985 2.701 6.996 4.568 1.983 1.838 3.592 4.108 4.799 6.751 1.192 2.643 1.795 5.86 1.795 9.594 0 3.175-.66 6.148-1.953 8.805-1.308 2.686-3.147 5.07-5.474 7.11-2.327 2.039-5.143 3.648-8.376 4.783-3.275 1.149-6.866 1.724-10.702 1.724ZM67.061 326.186a6.263 6.263 0 1 0 0-12.524 6.262 6.262 0 1 0 0 12.524Z" fill="#0F4184"/><defs><linearGradient id="a" x1="236.718" y1="-3.27" x2="176.33" y2="211.61" gradientUnits="userSpaceOnUse"><stop offset=".33" stop-color="#FD0"/><stop offset=".471" stop-color="#FFDA00"/><stop offset=".625" stop-color="#FFD100"/><stop offset=".784" stop-color="#FDC200"/><stop offset=".946" stop-color="#F8AB00"/><stop offset=".98" stop-color="#F7A600"/></linearGradient><linearGradient id="b" x1="224.488" y1="36.928" x2="224.494" y2="181.709" gradientUnits="userSpaceOnUse"><stop offset=".257" stop-color="#2462AD"/><stop offset=".377" stop-color="#245DA9"/><stop offset=".556" stop-color="#2551A0"/><stop offset=".771" stop-color="#263C91"/><stop offset=".888" stop-color="#253089"/></linearGradient><linearGradient id="c" x1="212.954" y1="79.91" x2="246.771" y2="129.492" gradientUnits="userSpaceOnUse"><stop offset=".295" stop-color="#E5192C"/><stop offset=".399" stop-color="#E2192C"/><stop offset=".512" stop-color="#DA1A29"/><stop offset=".629" stop-color="#CD1C26"/><stop offset=".748" stop-color="#BA1D21"/><stop offset=".852" stop-color="#A4211E"/></linearGradient><linearGradient id="d" x1="266.367" y1="83.291" x2="205.979" y2="298.173" gradientUnits="userSpaceOnUse"><stop offset=".33" stop-color="#FD0"/><stop offset=".475" stop-color="#FFDA00"/><stop offset=".633" stop-color="#FFD100"/><stop offset=".797" stop-color="#FDC200"/><stop offset=".963" stop-color="#F8AB00"/><stop offset=".998" stop-color="#F7A600"/></linearGradient><linearGradient id="e" x1="247.419" y1="111.319" x2="205.167" y2="261.665" gradientUnits="userSpaceOnUse"><stop offset=".348" stop-color="#2462AD"/><stop offset=".462" stop-color="#245FAB"/><stop offset=".585" stop-color="#2557A5"/><stop offset=".713" stop-color="#26499B"/><stop offset=".843" stop-color="#26378E"/><stop offset=".888" stop-color="#253089"/></linearGradient><linearGradient id="f" x1="228.737" y1="138.478" x2="203.735" y2="227.444" gradientUnits="userSpaceOnUse"><stop offset=".295" stop-color="#E5192C"/><stop offset=".399" stop-color="#E2192C"/><stop offset=".512" stop-color="#DA1A29"/><stop offset=".629" stop-color="#CD1C26"/><stop offset=".748" stop-color="#BA1D21"/><stop offset=".852" stop-color="#A4211E"/></linearGradient></defs></svg>