<svg width="416" height="360" fill="none" xmlns="http://www.w3.org/2000/svg"><path fill-rule="evenodd" clip-rule="evenodd" d="M267.565 224.717s-22.085.809-44.325-.212l.541-2.072c.464-4.8.606-9.57.451-14.305l19.653-51.991c16.789-58.442-60.67-135.426-60.67-135.426-11.286 20.343-14.229 47.837-12.717 76.63C117.436 39.03 44.218 0 44.218 0 36.523 61.709 126.19 177.156 170.09 229.478c0 0 7.336 6.621-8.032 12.181l-23.671 7.373S13.278 289.114 3.807 301.065c0 0-10.15 6.322 2.696 18.976 0 0 20.297 27.428 25.71 33.047 0 0 11.492 12.654 20.964 3.517 0 0 81.151-75.239 105.527-87.19l16.276-.482c3.838 1.33 88.033 6.631 163.123-44.852 0 0 12.73-11.758 33.22-23.034l4.814-2.776.927-.452c6.293-4.173 19.457-3.046 25.044-2.246 5.576.81 11.153.598 11.153.598 3.586.404 1.595-2.535 1.595-2.535-2.977-2.747-12.787-6.274-20.258-8.683l-1.102-.752c-2.156-1.667-6.766-6.342-6.225-12.567 1.247-14.206-14.904-18.09-27.334-20.673-12.429-2.592-20.481-3.344-20.481-3.344l-2.735-.742a72.507 72.507 0 0 0-5.19-.781l-5.606-1.339s-42.238-7.749-35.82-49.363c-5.582 14.339 8.483 45.888 11.361 51.721-1.602.442-23.416 6.477-25.753 7.424 0 0 62.265-15.228 82.34 8.799 0 0 14.662 10.341-6.408 32.69 0 0-24.995 31.177-84.08 28.691Zm33.993-77.63c.617 1.336.498 1.222-.092.026l.092-.026Z" fill="#E80"/></svg>