<svg width="102" height="87" fill="none" xmlns="http://www.w3.org/2000/svg"><path fill-rule="evenodd" clip-rule="evenodd" d="M36.039 54.3s5.383.196 10.805-.051l-.132-.5a26.553 26.553 0 0 1-.11-3.459l-4.79-12.562c-4.093-14.121 14.79-32.724 14.79-32.724 2.75 4.916 3.468 11.56 3.1 18.516C72.635 9.43 90.483 0 90.483 0 92.359 14.911 70.5 42.808 59.8 55.45c0 0-1.788 1.6 1.958 2.944l5.77 1.782s30.497 9.685 32.806 12.573c0 0 2.474 1.527-.657 4.585 0 0-4.948 6.628-6.267 7.985 0 0-2.802 3.058-5.11.85 0 0-19.782-18.18-25.724-21.068l-3.968-.117c-.935.322-21.46 1.603-39.764-10.838 0 0-3.103-2.84-8.098-5.565l-1.173-.671-.226-.11c-1.534-1.008-4.743-.735-6.105-.542-1.36.195-2.719.144-2.719.144-.874.098-.389-.612-.389-.612.726-.664 3.117-1.516 4.939-2.099l.268-.181c.526-.403 1.65-1.532 1.518-3.037-.304-3.432 3.633-4.37 6.663-4.995 3.03-.627 4.992-.808 4.992-.808l.667-.18c.41-.076.834-.14 1.265-.188l1.367-.324s10.296-1.872 8.731-11.928c1.361 3.465-2.067 11.088-2.769 12.498.39.107 5.708 1.565 6.278 1.794 0 0-15.178-3.68-20.072 2.126 0 0-3.574 2.499 1.562 7.9 0 0 6.093 7.533 20.496 6.932Zm-8.287-18.758c-.15.323-.12.295.023.006l-.023-.006Z" fill="#fff"/></svg>